<svg width="76" height="32" viewBox="0 0 76 32" fill="none" xmlns="http://www.w3.org/2000/svg">
<rect width="75.3488" height="32" rx="16" fill="#F8CB19"/>
<path d="M35.7513 11.2719C35.1369 11.0431 34.5276 10.9285 33.9252 10.9285C32.7683 10.9285 31.6952 11.236 30.7072 11.8503C29.7185 12.4647 29.2245 13.6166 29.2245 15.3035L29.2119 24.4291H30.4829C31.1394 24.4265 31.6706 23.8934 31.6706 23.2368V23.1997L31.6832 19.4976C31.9725 20.0036 32.3575 20.3779 32.8401 20.6186C33.2976 20.8354 33.8282 20.9438 34.4312 20.9438C35.5642 20.9438 36.4923 20.4863 37.2151 19.5701C37.9384 18.6299 38.2995 17.4006 38.2995 15.8819C38.2995 14.3633 37.9378 13.2064 37.2151 12.2662C36.8534 11.8321 36.3657 11.5012 35.7507 11.2719H35.7513ZM35.263 18.0515C34.9013 18.5575 34.4073 18.8108 33.7803 18.8108C33.1054 18.8108 32.5868 18.5575 32.2258 18.0515C31.8641 17.594 31.6832 16.9072 31.6832 15.9903C31.6832 15.0023 31.8515 14.2789 32.1892 13.8208C32.5509 13.3148 33.0569 13.0615 33.7078 13.0615C34.3587 13.0615 34.9013 13.3148 35.2623 13.8208C35.624 14.3268 35.8049 15.0502 35.8049 15.9903C35.8049 16.858 35.624 17.5449 35.2623 18.0515H35.263Z" fill="#010101"/>
<path d="M51.891 8.63349C51.891 7.975 51.3573 7.44191 50.6994 7.44191H49.4329V12.4111C49.1437 11.9537 48.758 11.5794 48.276 11.2901C47.8179 11.0494 47.2873 10.9284 46.6849 10.9284C45.5513 10.9284 44.6238 11.3985 43.9011 12.3387C43.2016 13.2549 42.8525 14.4717 42.8525 15.9903C42.8525 17.5089 43.2016 18.7509 43.9011 19.6419C44.2627 20.1 44.7442 20.4315 45.3472 20.6363C45.9496 20.8411 46.5639 20.9438 47.1909 20.9438C48.3478 20.9438 49.4203 20.6426 50.4089 20.0402C51.397 19.4377 51.8916 18.2808 51.8916 16.5694V8.67067V8.63286L51.891 8.63349ZM48.9263 18.0874C48.5646 18.5934 48.0586 18.8467 47.4077 18.8467C46.7568 18.8467 46.2142 18.5934 45.8532 18.0874C45.4915 17.5814 45.3106 16.846 45.3106 15.8819C45.3106 15.0142 45.4915 14.3393 45.8532 13.8573C46.2149 13.3513 46.7082 13.098 47.3358 13.098C47.9634 13.098 48.5047 13.3393 48.8903 13.8214C49.252 14.3274 49.4329 15.0148 49.4329 15.8825C49.4329 16.8466 49.264 17.582 48.9269 18.088L48.9263 18.0874Z" fill="#010101"/>
<path d="M61.1913 13.098C60.7572 12.2063 60.0823 11.5793 59.1668 11.2176C58.3715 10.9284 57.4793 10.8503 56.4913 10.9826C55.5026 11.1156 54.6954 11.5428 54.0691 12.2662C53.6834 12.7003 53.3999 13.2423 53.2197 13.8932C53.0388 14.5441 52.9487 15.195 52.9487 15.8453C52.9487 16.6406 53.0571 17.4062 53.2739 18.1415C53.4906 18.8769 53.8523 19.461 54.3589 19.8952C54.841 20.3294 55.4856 20.6362 56.2934 20.8171C57.1006 20.9979 57.9021 20.9797 58.6979 20.7629C59.5896 20.5701 60.3249 20.0761 60.9034 19.2802C61.168 18.8952 61.3854 18.4251 61.5543 17.87C61.7225 17.3161 61.8076 16.6532 61.8076 15.8813C61.8076 14.8207 61.6028 13.8926 61.1932 13.0973L61.1913 13.098ZM58.8775 18.0149C58.5883 18.4484 58.2569 18.72 57.8832 18.8284C57.5089 18.9368 57.1422 18.9248 56.7805 18.7925C56.4188 18.6601 56.1655 18.4976 56.0212 18.3041C55.6595 17.87 55.4547 17.105 55.4062 16.0079C55.3577 14.9115 55.587 14.086 56.093 13.5309C56.2613 13.3626 56.5265 13.2234 56.8882 13.115C57.2499 13.0066 57.6116 13.0129 57.9727 13.1333C58.3344 13.2542 58.6532 13.5309 58.9305 13.965C59.2071 14.3986 59.3463 15.0495 59.3463 15.9172C59.3224 16.8813 59.1655 17.5807 58.8763 18.0143L58.8775 18.0149Z" fill="#010101"/>
<path d="M18.6427 10.9228C17.9918 10.9228 17.3591 11.0072 16.7447 11.1761C16.1304 11.345 15.5935 11.6103 15.136 11.9713C14.6534 12.357 14.274 12.8693 13.9974 13.5082C13.7202 14.1472 13.5815 14.9361 13.5815 15.8763L13.5841 20.9425H14.8531C15.5116 20.9425 16.0447 20.4088 16.0447 19.751L16.0422 15.1875C16.0422 14.1907 16.8506 13.3822 17.8475 13.3822H17.7763H17.8317C18.4826 13.3709 19.005 12.8403 19.005 12.1894V10.9228H18.6433H18.6427Z" fill="#010101"/>
<path d="M40.5816 10.9221C39.9023 10.9221 39.3516 11.4792 39.3516 12.1666V20.952H40.6206C41.2791 20.952 41.8122 20.4182 41.8122 19.7604V12.1666C41.8122 11.4792 41.2615 10.9221 40.5822 10.9221H40.5816Z" fill="#010101"/>
<path d="M27.129 11.6153C26.4541 11.1578 25.4415 10.9285 24.0918 10.9285C22.8864 10.9285 21.9588 11.2057 21.3079 11.7602C20.7295 12.2429 20.3917 12.8573 20.2953 13.604H21.6853C22.0187 13.5643 22.393 13.6009 23.0313 13.2039C23.1094 13.1453 23.1983 13.0974 23.2966 13.0621C23.5618 12.9663 23.8624 12.9178 24.2008 12.9178C24.514 12.9178 24.8574 12.972 25.231 13.0804C25.6047 13.1887 25.7912 13.4238 25.7912 13.7855C25.7912 14.2682 25.2606 14.5807 24.2002 14.7256C23.9834 14.7502 23.7931 14.7994 23.6217 14.8157C23.4535 14.8321 23.318 14.8491 23.1876 14.8699C22.2714 15.0142 21.5184 15.3041 20.9279 15.7376C20.3369 16.1718 20.042 16.8946 20.042 17.9072C20.042 18.9916 20.3671 19.7692 21.018 20.2393C21.669 20.7094 22.4283 20.9444 23.2959 20.9444C23.7301 20.9444 24.2298 20.9142 24.7962 20.8543C25.3621 20.7938 25.899 20.6319 26.4049 20.366C26.887 20.1252 27.3029 19.7333 27.6526 19.1908C28.0017 18.6482 28.1768 17.8952 28.1768 16.9311V13.6406C28.1768 12.7729 27.8271 12.098 27.1283 11.6159L27.129 11.6153ZM25.8271 16.8221C25.8271 17.497 25.6337 18.0275 25.2487 18.4132C24.8637 18.7988 24.3325 18.9916 23.6576 18.9916C23.2474 18.9916 22.9342 18.8959 22.7175 18.7024C22.5007 18.4856 22.3917 18.1964 22.3917 17.8347C22.3917 17.5694 22.4761 17.3048 22.645 17.0395C22.8378 16.8467 23.151 16.6904 23.5852 16.5694L24.4169 16.3886C25.0193 16.2436 25.4894 16.0874 25.8271 15.9185V16.8221Z" fill="#010101"/>
<path d="M40.62 7.46497H40.5431C39.8846 7.46497 39.3516 7.99869 39.3516 8.65655V9.92563H40.6206C41.2791 9.92563 41.8122 9.39191 41.8122 8.73405V8.65718C41.8122 7.99869 41.2785 7.4656 40.6206 7.4656L40.62 7.46497Z" fill="#010101"/>
</svg>
