<svg width="144" height="144" viewBox="0 0 144 144" fill="none" xmlns="http://www.w3.org/2000/svg">
<rect width="144" height="144" rx="9" fill="#F8CB19"/>
<path d="M55.8045 90.0171C55.8045 90.8831 55.4943 91.6277 54.8765 92.2483C54.256 92.866 53.5141 93.1763 52.6453 93.1763H49.4861V70.038C49.4861 65.7026 50.7555 62.7437 53.2969 61.1641C55.8356 59.5845 58.5942 58.7947 61.5672 58.7947C63.1158 58.7947 64.6813 59.088 66.2609 59.6776C67.8405 60.2671 69.0957 61.1189 70.0237 62.2331C71.8826 64.6477 72.8106 67.7476 72.8106 71.5245C72.8106 75.3015 71.8826 78.5876 70.0237 81.0021C68.1649 83.3574 65.7814 84.5336 62.8676 84.5336C61.319 84.5336 59.9566 84.2544 58.7804 83.6987C57.5393 83.081 56.5492 82.1191 55.8074 80.8188V90.0171H55.8045ZM66.3963 71.8066C66.3963 69.3893 65.9309 67.5332 65.0029 66.2301C64.0749 64.9297 62.7407 64.2781 61.0087 64.2781C59.2768 64.2781 58.0357 64.9297 57.1049 66.2301C56.2361 67.4063 55.8045 69.2652 55.8045 71.8066C55.8045 74.1619 56.2699 75.9277 57.198 77.1039C58.126 78.4042 59.4574 79.0558 61.1921 79.0558C62.8027 79.0558 64.072 78.4042 65.0029 77.1039C65.9309 75.8036 66.3963 74.0378 66.3963 71.8066Z" fill="#010101"/>
<path d="M101.543 50.8235H104.702C105.568 50.8235 106.312 51.1479 106.933 51.7995C107.551 52.451 107.861 53.1788 107.861 53.9827V73.2933C107.861 77.6936 106.592 80.6666 104.05 82.2123C101.509 83.7609 98.753 84.5366 95.78 84.5366C94.1693 84.5366 92.5897 84.2714 91.0412 83.7468C89.4926 83.2221 88.2543 82.3703 87.3235 81.1912C85.5267 78.9008 84.6297 75.7727 84.6297 71.8067C84.6297 67.8408 85.5267 64.7775 87.3235 62.4222C89.1823 60.0049 91.5658 58.7976 94.4796 58.7976C96.0282 58.7976 97.3906 59.1079 98.5668 59.7256C99.8051 60.4703 100.798 61.4293 101.54 62.6056V50.8235H101.543ZM90.9481 71.5275C90.9481 74.0069 91.4135 75.8939 92.3415 77.1943C93.2695 78.4946 94.6009 79.1462 96.3356 79.1462C98.0704 79.1462 99.3087 78.4946 100.24 77.1943C101.105 75.8939 101.54 74.0041 101.54 71.5275C101.54 69.2963 101.074 67.5334 100.146 66.2302C99.1535 64.9919 97.825 64.3713 96.1523 64.3713C94.4796 64.3713 93.2724 65.0229 92.3415 66.3233C91.4135 67.5644 90.9481 69.2963 90.9481 71.5275Z" fill="#010101"/>
<path d="M114.286 81.8429C112.986 80.7287 112.055 79.2281 111.5 77.3354C110.941 75.4455 110.665 73.4795 110.665 71.4344C110.665 69.7618 110.896 68.0891 111.361 66.4164C111.827 64.7437 112.555 63.3503 113.545 62.2361C115.155 60.3773 117.228 59.28 119.77 58.9387C122.309 58.6002 124.602 58.8005 126.647 59.5423C128.999 60.4704 130.734 62.0838 131.851 64.3742C132.903 66.4192 133.431 68.8027 133.431 71.5304C133.431 73.5133 133.213 75.217 132.779 76.6415C132.345 78.0659 131.786 79.276 131.106 80.2661C129.62 82.3111 127.73 83.5804 125.437 84.0769C123.392 84.6354 121.333 84.6805 119.257 84.2151C117.181 83.7497 115.525 82.9599 114.286 81.8457V81.8429ZM118.746 65.4884C117.446 66.9128 116.856 69.034 116.98 71.8547C117.104 74.6754 117.632 76.6387 118.56 77.7557C118.932 78.2521 119.581 78.6696 120.512 79.0109C121.44 79.3522 122.385 79.3832 123.347 79.104C124.306 78.8247 125.157 78.128 125.902 77.0138C126.647 75.8996 127.047 74.1028 127.109 71.6234C127.109 69.3923 126.751 67.7196 126.04 66.6054C125.327 65.4912 124.509 64.7776 123.578 64.4673C122.65 64.157 121.719 64.1429 120.791 64.4222C119.86 64.7014 119.18 65.0568 118.746 65.4912V65.4884Z" fill="#010101"/>
<path d="M24.0437 59.3557H23.5783C21.9056 59.3557 20.2809 59.5729 18.7013 60.0073C17.1217 60.4417 15.7423 61.1215 14.5661 62.0523C13.325 63.0452 12.3518 64.3596 11.6382 66.0013C10.9246 67.643 10.5692 69.671 10.5692 72.0884V84.0736H13.7396C14.6056 84.0736 15.3503 83.7633 15.9708 83.1456C16.566 82.5504 16.8734 81.8368 16.896 81.0131V70.3198C16.896 67.7586 18.972 65.6797 21.5361 65.6797H21.3527C22.2187 65.6797 22.9633 65.3695 23.5839 64.7517C24.1904 64.1425 24.5006 63.4119 24.5119 62.5657V59.3614H24.0465L24.0437 59.3557Z" fill="#010101"/>
<path d="M79.1287 84.0708H75.5239V62.3513C75.5239 60.6533 76.9399 59.2739 78.6859 59.2739C80.4319 59.2739 81.8479 60.6504 81.8479 62.3513V81.4249C81.8479 82.8861 80.6293 84.0708 79.1287 84.0708Z" fill="#010101"/>
<path d="M44.0874 60.5636C42.3526 59.3874 39.7519 58.7979 36.2825 58.7979C33.1853 58.7979 30.799 59.5115 29.1263 60.9359C27.6398 62.1771 26.771 63.7567 26.5256 65.6747H30.0967C30.9542 65.5732 31.916 65.6663 33.5549 64.6452C33.7551 64.4929 33.9836 64.3716 34.2375 64.2813C34.9173 64.0359 35.693 63.909 36.5617 63.909C37.3656 63.909 38.2485 64.0472 39.2104 64.3264C40.1694 64.6057 40.6518 65.2093 40.6518 66.1373C40.6518 67.3784 39.2894 68.1823 36.5645 68.5547C36.006 68.6167 35.5096 68.6929 35.078 68.786C34.6436 68.8791 34.2713 68.9242 33.9639 68.9242C31.6086 69.2965 29.6736 70.0384 28.156 71.1554C26.6385 72.2696 25.8797 74.1284 25.8797 76.7319C25.8797 79.5188 26.7146 81.5187 28.3873 82.7259C30.06 83.9332 32.0119 84.5368 34.2403 84.5368C35.3545 84.5368 36.6407 84.4578 38.0962 84.3055C39.5517 84.1504 40.931 83.7329 42.2313 83.0503C43.4696 82.4326 44.5387 81.4256 45.4357 80.0293C46.3327 78.6359 46.784 76.7009 46.784 74.2215V65.765C46.784 63.5338 45.8842 61.8019 44.0902 60.5608L44.0874 60.5636ZM40.742 73.9422C40.742 75.677 40.2456 77.0394 39.2555 78.0294C38.2626 79.0223 36.9002 79.516 35.1683 79.516C34.1134 79.516 33.3095 79.2677 32.7538 78.7713C32.1953 78.2128 31.916 77.4709 31.916 76.5401C31.916 75.8603 32.1332 75.1777 32.5676 74.4951C33.0641 74.0015 33.8679 73.5981 34.9849 73.2878L37.123 72.8224C38.6716 72.4501 39.8789 72.0495 40.7477 71.6151V73.9394L40.742 73.9422Z" fill="#010101"/>
<path d="M78.9291 56.9845H75.691V53.7463C75.691 52.2231 76.9236 50.9905 78.4468 50.9905H78.9291C80.4523 50.9905 81.685 52.2231 81.685 53.7463V54.2287C81.685 55.7518 80.4523 56.9845 78.9291 56.9845Z" fill="black"/>
</svg>
