<svg width="30" height="38" viewBox="0 0 30 38" fill="none" xmlns="http://www.w3.org/2000/svg">
<path d="M15.3269 18.9616C16.3357 18.9616 17.1995 18.5918 17.9185 17.8523C18.6363 17.114 18.9952 16.2261 18.9952 15.1885C18.9952 14.1509 18.6363 13.2623 17.9185 12.5228C17.1995 11.7846 16.3357 11.4154 15.3269 11.4154C14.3181 11.4154 13.4548 11.7846 12.7371 12.5228C12.0181 13.2623 11.6586 14.1509 11.6586 15.1885C11.6586 16.2261 12.0181 17.114 12.7371 17.8523C13.4548 18.5918 14.3181 18.9616 15.3269 18.9616ZM15.3269 37.827C10.4053 33.5194 6.72969 29.518 4.30007 25.8229C1.86923 22.1291 0.653809 18.71 0.653809 15.5658C0.653809 10.8495 2.12906 7.0921 5.07958 4.29374C8.02886 1.49537 11.4446 0.0961914 15.3269 0.0961914C19.2091 0.0961914 22.6249 1.49537 25.5742 4.29374C28.5247 7.0921 30 10.8495 30 15.5658C30 18.71 28.7852 22.1291 26.3555 25.8229C23.9247 29.518 20.2485 33.5194 15.3269 37.827Z" fill="#1A202A"/>
</svg>
